<svg xmlns="http://www.w3.org/2000/svg" width="960" height="580" viewBox="0 0 960 580">
<style>text{font-family:Arial,sans-serif;fill:#14213d}.label{font-size:18px;font-weight:bold}.small{font-size:14px}.edge{fill:none;stroke:#14213d;stroke-width:3}.dash{fill:none;stroke:#d62828;stroke-width:4;stroke-dasharray:10 7}.arrow{stroke:#14213d;stroke-width:3;marker-end:url(#a)}</style>
<defs><marker id="a" markerWidth="8" markerHeight="8" refX="7" refY="4" orient="auto"><path d="M0,0 L8,4 L0,8z" fill="#14213d"/></marker></defs>
<rect x="430" y="110" width="290" height="290" rx="8" fill="#d9edf7" stroke="#14213d" stroke-width="3"/>
<polygon points="140,110 430,110 430,400 140,400" fill="#e9f5db" stroke="#14213d" stroke-width="3"/>
<line x1="430" y1="110" x2="430" y2="400" class="dash"/>
<text x="230" y="155" class="label">Chunk 2: left-attached</text><text x="505" y="155" class="label">Chunk 1: central</text>
<text x="372" y="270" class="small" transform="rotate(-90 372 270)">shared AB–AC interface</text>
<circle cx="575" cy="255" r="7" fill="#111"/><text x="588" y="250" class="small">central point</text>
<circle cx="430" cy="400" r="7" fill="#d62828"/><text x="388" y="427" class="label">C1</text>
<circle cx="430" cy="110" r="7" fill="#d62828"/><text x="388" y="98" class="label">C2</text>
<line x1="575" y1="255" x2="670" y2="255" class="arrow"/><text x="680" y="260" class="small">+xi</text>
<line x1="575" y1="255" x2="575" y2="180" class="arrow"/><text x="584" y="184" class="small">+eta</text>
<line x1="285" y1="255" x2="190" y2="255" class="arrow"/><text x="150" y="260" class="small">+xi</text>
<line x1="285" y1="255" x2="285" y2="180" class="arrow"/><text x="294" y="184" class="small">+eta</text>
<path d="M575,470 A105,105 0 0 1 655,430" fill="none" stroke="#f77f00" stroke-width="4" marker-end="url(#a)"/><text x="610" y="490" class="small">GAMMA_ROTATION_AZIMUTH</text>
<text x="112" y="455" class="small">solid edges: external boundaries</text><text x="112" y="478" class="small">red dashed line: internal interface, not an absorbing face</text>
<text x="70" y="535" class="small">Schematic only: xi/eta directions and attachment topology; not a map projection or mesh database.</text>
</svg>
